<svg xmlns='http://www.w3.org/2000/svg' width='400' height='400'>
      <defs><style>.cls-multipy{mix-blend-mode: multiply;}.cls-softlight{mix-blend-mode: soft-light;}.cls-overlay{mix-blend-mode: overlay;}.cls-colorburn{mix-blend-mode: color-burn;}.cls-screen{mix-blend-mode: screen;}.cls-lighten{ mix-blend-mode: darken;}</style>
      </defs><path fill="#ffc1b5" stroke="#000" stroke-miterlimit="10" stroke-width="5" d="M303.13,380v19.39H96.87V380c0-38.61,19.76-71.1,45.91-78.94a42.23,42.23,0,0,1,8.94-1.67h0c1.08-.09,2.16-.14,3.26-.14h90c1.1,0,2.18,0,3.26.14h0a42.32,42.32,0,0,1,12.16,2.78C285,311.65,303.13,343,303.13,380Z" class="canChange" style="fill:rgb(242, 195, 169)"></path><path fill="#ffc1b5" stroke="#000" stroke-miterlimit="10" stroke-width="5" d="M311.59,187.33s53.56-48.67,44.87,6.95S312.69,238,312.69,238" class="canChange" style="fill:rgb(242, 195, 169)"></path><path fill="none" stroke="#000" stroke-miterlimit="10" stroke-width="2" d="M345.49,178.08c-7.33,1.35-19.24,13.09-21.6,22a7.31,7.31,0,0,1,10.47-.63c3.17,2.78,4.94,8.41,4.24,13.5s-3.83,9.3-7.49,10.1"></path><path fill="#fff" d="M315.07,196.36c5.16-10.16,12.78-17.79,21.34-21.37,3-1.27,6.42-2,9.34-.19,4.05,2.51,6,9.35,5.7,15.49s-2.37,11.76-4.4,17.19c4.25-5.19,7.1-12.56,7.89-20.42.4-3.93.23-8.26-1.49-11.48A9.14,9.14,0,0,0,348,171a12.92,12.92,0,0,0-6.39,0c-10.12,2.14-19.41,10.61-24.85,22.65" class="cls-overlay"></path><path fill="#ffc1b5" stroke="#000" stroke-miterlimit="10" stroke-width="5" d="M88.41,187.33s-53.56-48.67-44.87,6.95S87.31,238,87.31,238" class="canChange" style="fill:rgb(242, 195, 169)"></path><path fill="none" stroke="#000" stroke-miterlimit="10" stroke-width="2" d="M54.51,178.08c7.33,1.35,19.24,13.09,21.6,22a7.31,7.31,0,0,0-10.47-.63c-3.17,2.78-4.94,8.41-4.24,13.5s3.83,9.3,7.49,10.1"></path><path fill="#fff" d="M84.93,196.36C79.77,186.2,72.15,178.57,63.59,175c-3-1.27-6.42-2-9.34-.19-4,2.51-6,9.35-5.7,15.49s2.37,11.76,4.4,17.19c-4.25-5.19-7.1-12.56-7.89-20.42-.4-3.93-.23-8.26,1.49-11.48A9.14,9.14,0,0,1,52,171a12.92,12.92,0,0,1,6.39,0c10.12,2.14,19.41,10.61,24.85,22.65" class="cls-overlay"></path><circle fill="#ffc1b5" stroke="#000" stroke-miterlimit="10" stroke-width="5" cx="199.03" cy="179.39" r="129.04" class="canChange" style="fill:rgb(242, 195, 169)"></circle><path fill="#fff" d="M79.76,187a128.71,128.71,0,0,0,45.12,98A129,129,0,1,1,283,81.38,129.06,129.06,0,0,0,79.76,187Z" class="cls-overlay"></path><path opacity="0.29" d="M328.31,179.39a129.06,129.06,0,0,1-252,39.18A129.08,129.08,0,0,0,312.47,117.39,128.45,128.45,0,0,1,328.31,179.39Z"></path><path opacity="0.29" d="M329.93,148.65,327,177.08,291.73,92.14s-3.76,13.09-10.55,15.35l-6.79-22.63s-1.13,15.84-9.05,20.37c0,0-6.79-11.32-22.63-17,0,0-10.18,18.11-22.63,18.11,0,0-6.79-14.71-20.37-19.24,0,0,4.53,12.45-19.24,26,0,0-44.38-21.66-76.5-21l-10.2,14.49L70,167.68l-3.11-25.35L96.74,90.52c30.55-14.71,87.13,10.18,87.13,10.18L163.5,78.07l24.9,9.05s-3.4-12.44-4.53-19.23,40.74,22.63,40.74,22.63l11.31-19.24,29.42,19.24L269.87,60l11.31,30.55,12.45-18.11Z"></path><path fill="#963030" stroke="#000" stroke-miterlimit="10" stroke-width="5" d="M338.89,87.12l-9,61.53-2.35,31.26L291.73,92.14s-3.76,13.09-10.55,15.35l-6.79-22.63s-1.13,15.84-9.05,20.37c0,0-6.79-11.32-22.63-17,0,0-10.18,18.11-22.63,18.11,0,0-6.79-14.71-20.37-19.24,0,0,4.53,12.45-19.24,26,0,0-44.38-21.66-76.5-21l-10.2,14.49-23.38,60-.4,1-3.11-25.35L61.17,95.79a9.2,9.2,0,0,1,3.61-8.46L92.21,66.76,128.52,19a12,12,0,0,1,8.84-4.71c26.16-1.59,132.73-8.48,180.49,36.75A72.1,72.1,0,0,1,338.89,87.12Z" class="canChange" style="fill:rgb(127, 84, 84)"></path><path fill="#fff" d="M226.87,31.68H254C197.24,8.3,139.35,20,137.52,20.35c38.44-5.64,46.35,6.8,46.35,6.8-49.79-9-61.11,12.45-61.11,12.45C162.37,31.68,176,47.52,176,47.52c-32.82-10.19-61.11,3.39-61.11,3.39L99,69,73,92.78l-2.59,73.87-.4,1-3.11-25.35L61.17,95.79a9.2,9.2,0,0,1,3.61-8.46L92.21,66.76,128.52,19a12,12,0,0,1,8.84-4.71c26.16-1.59,132.73-8.48,180.49,36.75C284.67,37.92,226.87,31.68,226.87,31.68Z" class="cls-overlay"></path><path d="M158.45,107c-6.12-7.11-14.7-12.65-23.32-16.15-18.46-7.5-37.8-2.94-53.35,8.85-5.06,3.84-.08,12.53,5,8.64,13.73-10.42,30.1-14.82,46.32-7.53a52.94,52.94,0,0,1,18.23,13.26c4.21,4.89,11.25-2.21,7.07-7.07Z" class="canChange"></path><path d="M248.62,157.34a53,53,0,0,1,18.23-13.26c16.21-7.31,32.6-2.88,46.32,7.53,5.13,3.88,10.11-4.8,5.05-8.64-15.55-11.79-34.89-16.35-53.35-8.85-8.62,3.5-17.2,9-23.32,16.15-4.18,4.86,2.86,12,7.07,7.07Z" class="canChange"></path><ellipse opacity="0.29" cx="276.91" cy="193.44" rx="42.09" ry="43.67"></ellipse><path fill="#fff" d="M276.11,233.41c-22.38,0-40.59-18.92-40.59-42.17s18.21-42.17,40.59-42.17S316.7,168,316.7,191.24,298.49,233.41,276.11,233.41Z"></path><path d="M276.11,150.57c21.55,0,39.09,18.25,39.09,40.67s-17.54,40.67-39.09,40.67S237,213.66,237,191.24s17.53-40.67,39.09-40.67m0-3c-23.25,0-42.09,19.55-42.09,43.67s18.84,43.67,42.09,43.67,42.09-19.55,42.09-43.67-18.85-43.67-42.09-43.67Z"></path><path opacity="0.29" d="M318.19,191.24c0,24.12-18.84,43.66-42.09,43.66A41.47,41.47,0,0,1,242.82,218a52.93,52.93,0,0,0,16.33,2.57c26.18,0,47.4-18.92,47.4-42.25a39,39,0,0,0-8.75-24.47A44,44,0,0,1,318.19,191.24Z"></path><ellipse cx="276.73" cy="191.42" rx="26.43" ry="25.38" transform="translate(-5.22 7.78) rotate(-1.59)" class="canChange"></ellipse><ellipse opacity="0.29" cx="121.09" cy="193.44" rx="42.09" ry="43.67"></ellipse><path fill="#fff" d="M121.89,233.41c-22.38,0-40.59-18.92-40.59-42.17s18.21-42.17,40.59-42.17,40.59,18.92,40.59,42.17S144.27,233.41,121.89,233.41Z"></path><path d="M121.89,150.57c21.56,0,39.09,18.25,39.09,40.67s-17.53,40.67-39.09,40.67S82.8,213.66,82.8,191.24s17.54-40.67,39.09-40.67m0-3c-23.24,0-42.09,19.55-42.09,43.67s18.85,43.67,42.09,43.67S164,215.36,164,191.24s-18.84-43.67-42.09-43.67Z"></path><path opacity="0.29" d="M79.81,191.24c0,24.12,18.84,43.66,42.09,43.66A41.47,41.47,0,0,0,155.18,218a52.93,52.93,0,0,1-16.33,2.57c-26.18,0-47.4-18.92-47.4-42.25a39,39,0,0,1,8.75-24.47A44,44,0,0,0,79.81,191.24Z"></path><ellipse cx="120.73" cy="192.42" rx="26.43" ry="25.38" transform="translate(-5.31 3.43) rotate(-1.59)" class="canChange"></ellipse><path fill="#2e0f0e" stroke="#000" stroke-miterlimit="10" stroke-width="3" d="M213,271.67a8.64,8.64,0,0,1-1.37,2.62c-2.87,3.74-8.05,3.92-12.55,3.79a26.52,26.52,0,0,1-7.43-.93,9.66,9.66,0,0,1-5.81-4.77,9.23,9.23,0,0,1-.82-3c-1-9.28,6.5-23.42,17.91-22.67a9.1,9.1,0,0,1,6.71,3.88C213.74,256.15,215.13,265.18,213,271.67Z"></path><path fill="#c74d5a" d="M187.66,273.87c5.44,2.68,12.41,4.37,18.75,1.33a18.12,18.12,0,0,0,5-3.6c-5.39-5.51-12.84-2-12.84-2l-1.05-.29-.17,0A8.07,8.07,0,0,0,187.66,273.87Z"></path><path d="M193.71,272.85a2.4,2.4,0,0,1-.26-2,3.08,3.08,0,0,1,1.12-1.58,3,3,0,0,1,1.86-.6,2.27,2.27,0,0,1,1.85.93c-.54.6-.84,1-1.13,1.32a5.19,5.19,0,0,1-.8.77,6.15,6.15,0,0,1-1,.55C194.93,272.39,194.45,272.57,193.71,272.85Z"></path><path opacity="0.18" d="M195.06,271.11c4.84-1.85,9,1.52,11.35,4.09a18.12,18.12,0,0,0,5-3.6c-5.39-5.51-12.84-2-12.84-2l-1.05-.29-.17,0Z"></path><path fill="#fff" opacity="0.49" d="M190.39,271.6a1.88,1.88,0,0,0-.22,1.53,1.14,1.14,0,0,0,1.15.82,1.29,1.29,0,0,0,.9-.7,4.55,4.55,0,0,0,.4-1.16,2.14,2.14,0,0,0,.08-1C192.33,269.62,190.8,270.93,190.39,271.6Z"></path><path opacity="0.18" d="M210.09,253.33a10.51,10.51,0,0,1-1.3,1.2,15.17,15.17,0,0,1-6.53,2.74,25.73,25.73,0,0,1-14.2-1.3,9.32,9.32,0,0,1,2.72-3.76c2-1.57,4.62-1.85,7.07-2.34a12.2,12.2,0,0,0,4-1.36c.69-.42,1.79-1.94,2.55-2,2.08-.18,4.39,3.8,5.14,5.44Q209.83,252.64,210.09,253.33Z"></path><path fill="#3f364d" stroke="#000" stroke-miterlimit="10" stroke-width="5" d="M235.38,249.94s.73,4.79,0,6.05c0,0-16.41-6.8-21.15-13.86a25.36,25.36,0,0,1-3.28,5,36.38,36.38,0,0,1-10.8-9.2l-.15-.19c-.14.19-.28.38-.44.57a36.92,36.92,0,0,1-10.51,8.82,25.36,25.36,0,0,1-3.28-5C181,249.19,164.62,256,164.62,256c-.73-1.26,0-6.05,0-6.05a36.35,36.35,0,0,1-12.14,5.61,47,47,0,0,1-7.55,1.45c3.41-32.33,42.8-41.06,55.07-34.89,7.6-3.82,25.59-1.93,39,7.74,8.25,6,14.76,14.84,16.06,27.15C255.07,257,243.4,256,235.38,249.94Z" class="canChange" style="fill:rgb(175, 115, 115)"></path><path opacity="0.29" d="M198.4,238.77a3.93,3.93,0,0,0,1.16-.42,36.92,36.92,0,0,1-10.51,8.82,25.36,25.36,0,0,1-3.28-5C181,249.19,164.62,256,164.62,256c-.73-1.26,0-6.05,0-6.05a36.35,36.35,0,0,1-12.14,5.61,38.39,38.39,0,0,1,4.13-3.83c4.08-3.21,9.28-5.59,11.43-10.32l3.92,2.1c.67-1.65,1.35-3.31,2-5l4.28,4.24a18,18,0,0,0,2.11-6.9,30.87,30.87,0,0,0,8.69,7.1,30.69,30.69,0,0,0,3.57-7.07A5.86,5.86,0,0,0,198.4,238.77Z"></path><path opacity="0.29" d="M235.38,249.94s.73,4.79,0,6.05c0,0-16.41-6.8-21.15-13.86a25.36,25.36,0,0,1-3.28,5,36.38,36.38,0,0,1-10.8-9.2,4,4,0,0,0,1.51-4.28l4.45,3-.33-6.07a19.41,19.41,0,0,0,7.27,4.65,6.11,6.11,0,0,0,.38-2.84,27.63,27.63,0,0,0,8.26,6.08l-1.92-7.76a23.15,23.15,0,0,0,8.12,5.27,19.32,19.32,0,0,0-5.14-10.64l16.73,9.92a39.67,39.67,0,0,0-.47-5.44c8.25,6,14.76,14.84,16.06,27.15C255.07,257,243.4,256,235.38,249.94Z"></path><path fill="#fff" d="M200,227s-30-4-45,17-10,13-10,13l8-22,21.22-11.91,22.87-2" class="cls-overlay"></path><path fill="#8adb79" stroke="#000" stroke-miterlimit="10" stroke-width="4" d="M302.93,377.14v21.15H97.74V377.14c0-41,18.67-75.73,43.7-85.38.65-.26,1.31-.5,2-.71a39.33,39.33,0,0,1,8.9-1.83c1.08-.09,2.15-.15,3.25-.15H245.1c1.1,0,2.17.06,3.25.15a39.07,39.07,0,0,1,12.11,3C284.87,302.55,302.93,336.79,302.93,377.14Z" class="canChange" style="fill:rgb(96, 148, 102)"></path><path opacity="0.29" d="M152.89,302.39S118,298,112.54,343.83c-3.49,29.36-3.85,46.17-3.67,54.46H97.74V377.14c0-41,18.67-75.73,43.7-85.38Z"></path><path opacity="0.29" d="M246.61,301.92s34.9-4.36,40.35,41.44c3.49,29.36,3.85,46.17,3.67,54.46h11.13V376.67c0-41-18.67-75.73-43.7-85.38Z"></path><path fill="#8adb79" d="M270.87,334.57l-1.71.31c-5.24.9-10.55,1.85-15.91,2.74a5.59,5.59,0,0,1-1.15.43c-2.7.67-5.4,1.23-8.11,1.7q-3.84,1.08-7.69,2c-24.38,6-49.63,8.18-74.66,8.82a4.82,4.82,0,0,1-4.22-1.95,172.48,172.48,0,0,1-28.49-3.59c-.85,3.64-1.64,7.3-2.44,10.95h1.81l0,17.48v.81l0,22.44H270.71V356h3A158.09,158.09,0,0,1,270.87,334.57Z" class="canChange" style="fill:rgb(96, 148, 102)"></path><path d="M268,359.64V394H131.11L131,358.21a60.31,60.31,0,0,1-6.17-.15c0,.23,0,.45,0,.67h.77l.08,40.72H273.44V359.22C271.62,359.39,269.8,359.55,268,359.64Z"></path><path fill="#fff" d="M157.86,290.31v4.93s-23.5,0-36.47,19.75S100,400,100,400l-2.92-41.82s8.11-39.49,20.27-50.6S151.38,286.6,157.86,290.31Z" class="cls-overlay"></path><path fill="#8adb79" stroke="#000" stroke-miterlimit="10" stroke-width="4" d="M143.69,291s-6.54,32.21,14.18,39.36S199.06,299,199.06,299l.36-1.2s20.47,38.54,41.19,31.38,14.18-39.36,14.18-39.36" class="canChange" style="fill:rgb(96, 148, 102)"></path><path opacity="0.29" d="M258.52,292.26C245.65,301.17,224.6,307,200.82,307c-24.82,0-46.68-6.33-59.35-15.92a39.22,39.22,0,0,1,8.9-1.83h0c1.08-.1,2.15-.15,3.25-.15h89.55c1.09,0,2.16.05,3.24.15h0A39.36,39.36,0,0,1,258.52,292.26Z"></path><path fill="#fff" d="M151.22,289.22S144.71,320.38,160,328l-10.76-3.48S141.6,297.06,143.7,288" class="cls-overlay"></path><line fill="none" stroke="#000" stroke-miterlimit="10" stroke-width="4" x1="197.88" y1="301.11" x2="198.15" y2="386.91"></line><ellipse fill="none" stroke="#000" stroke-miterlimit="10" stroke-width="4" cx="212.33" cy="336.2" rx="7.09" ry="5.45"></ellipse><ellipse fill="none" stroke="#000" stroke-miterlimit="10" stroke-width="4" cx="212.33" cy="356.92" rx="7.09" ry="5.45"></ellipse></svg>